<svg width="226" height="133" viewBox="0 0 226 133" fill="none" xmlns="http://www.w3.org/2000/svg">
<path d="M1.368 14H3.798V9.806H5.832C8.316 9.806 10.116 8.222 10.116 5.954C10.116 3.668 8.316 2.12 5.832 2.12H1.368V14ZM3.798 7.682V4.262H5.832C6.93 4.262 7.632 4.946 7.632 5.954C7.632 6.98 6.966 7.682 5.832 7.682H3.798ZM17.3655 5.09C17.1315 5.018 16.8795 4.982 16.5735 4.982C15.5835 4.982 14.7195 5.414 14.1255 6.152V5.09H11.8935V14H14.3235V9.554C14.3235 8.024 15.2595 7.232 16.7175 7.232H17.3655V5.09ZM18.872 14H21.302V5.09H18.872V14ZM18.53 1.85C18.53 2.696 19.214 3.344 20.078 3.344C20.942 3.344 21.644 2.696 21.644 1.85C21.644 0.985999 20.942 0.337999 20.078 0.337999C19.214 0.337999 18.53 0.985999 18.53 1.85ZM23.202 9.536C23.166 12.11 25.362 14.27 27.972 14.216C29.7 14.216 31.068 13.37 31.842 12.002L30.15 10.706C29.574 11.516 28.926 11.984 28.008 11.984C26.64 11.984 25.668 10.958 25.668 9.536C25.668 8.15 26.64 7.106 28.008 7.106C28.944 7.106 29.592 7.592 30.15 8.402L31.842 7.088C31.068 5.72 29.718 4.892 27.972 4.892C25.326 4.892 23.202 6.926 23.202 9.536ZM41.6519 10.364C41.7599 9.914 41.8139 9.464 41.8139 9.032C41.8139 6.71 40.0859 4.892 37.6199 4.892C35.0459 4.838 32.9039 6.98 32.9579 9.554C32.9039 12.128 35.0819 14.27 37.8359 14.216C39.1499 14.216 40.3379 13.766 41.3999 12.884L40.3919 11.228C39.6179 11.822 38.7899 12.128 37.9079 12.128C36.6119 12.128 35.6939 11.498 35.4059 10.364H41.6519ZM35.4059 8.654C35.6759 7.556 36.5039 6.854 37.5299 6.854C38.5919 6.854 39.4379 7.556 39.4559 8.654H35.4059ZM58.9428 14L55.5768 9.338C56.8728 8.69 57.6648 7.466 57.6648 5.954C57.6648 3.668 55.8648 2.12 53.3808 2.12H48.9168V14H51.3468V9.806H53.1288L56.2068 14H58.9428ZM51.3468 4.262H53.3808C54.4788 4.262 55.1808 4.946 55.1808 5.954C55.1808 6.98 54.5148 7.664 53.3808 7.664H51.3468V4.262ZM67.5627 8.708C67.5627 6.242 66.0687 4.892 63.7467 4.892C62.1807 4.892 60.8847 5.504 59.8587 6.728L61.1187 8.222C61.9107 7.376 62.5587 6.998 63.4767 6.998C64.5567 6.998 65.1327 7.574 65.1327 8.564V8.96H62.9007C60.8307 8.96 59.5347 9.95 59.5347 11.552C59.5347 13.118 60.7227 14.216 62.6127 14.216C63.7467 14.216 64.6827 13.802 65.3307 13.136V14H67.5627V8.708ZM65.1327 10.67C65.1327 11.696 64.3227 12.434 63.2607 12.434C62.4867 12.434 61.9827 12.056 61.9827 11.462C61.9827 10.868 62.4327 10.562 63.2247 10.562H65.1327V10.67ZM78.0913 8.474C78.0913 6.314 76.8133 4.892 74.7433 4.892C73.6813 4.892 72.7633 5.27 72.1333 5.9V5.09H69.9013V14H72.3313V8.798C72.3313 7.772 73.0333 7.07 74.0233 7.07C75.0133 7.07 75.6793 7.772 75.6793 8.798V14H78.0913V8.474ZM87.1446 5.09V6.206C86.5146 5.36 85.5066 4.892 84.2286 4.892C81.7986 4.892 79.9626 6.656 79.9626 9.302C79.9626 11.912 81.7626 13.73 84.2286 13.73C85.3626 13.73 86.2986 13.37 86.9466 12.668V13.154C86.9466 14.54 86.0106 15.26 84.5706 15.26C83.4906 15.26 82.6626 14.846 81.6726 14.108L80.3946 15.8C81.6366 16.898 83.0946 17.456 84.7686 17.456C87.5586 17.456 89.3766 15.908 89.3766 13.01V5.09H87.1446ZM86.9826 9.266C86.9826 10.796 85.9566 11.678 84.7326 11.678C83.4366 11.678 82.4286 10.724 82.4286 9.284C82.4286 7.844 83.4186 6.962 84.7326 6.962C85.9746 6.962 86.9826 7.736 86.9826 9.266ZM99.9761 10.364C100.084 9.914 100.138 9.464 100.138 9.032C100.138 6.71 98.4101 4.892 95.9441 4.892C93.3701 4.838 91.2281 6.98 91.2821 9.554C91.2281 12.128 93.4061 14.27 96.1601 14.216C97.4741 14.216 98.6621 13.766 99.7241 12.884L98.7161 11.228C97.9421 11.822 97.1141 12.128 96.2321 12.128C94.9361 12.128 94.0181 11.498 93.7301 10.364H99.9761ZM93.7301 8.654C94.0001 7.556 94.8281 6.854 95.8541 6.854C96.9161 6.854 97.7621 7.556 97.7801 8.654H93.7301Z" fill="#3D3D3D"/>
<line x1="19" y1="43" x2="224" y2="43" stroke="#46A358" stroke-opacity="0.2" stroke-width="4" stroke-linecap="round"/>
<line x1="19" y1="43" x2="176" y2="43" stroke="#46A358" stroke-width="4" stroke-linecap="round"/>
<circle cx="19.5" cy="43.5" r="9" fill="#46A358" stroke="white" stroke-width="3"/>
<circle cx="174.5" cy="43.5" r="9" fill="#46A358" stroke="white" stroke-width="3"/>
<path d="M13.365 79H14.535V74.86H16.845C18.765 74.86 20.01 73.66 20.01 71.965C20.01 70.3 18.765 69.1 16.845 69.1H13.365V79ZM14.535 73.81V70.15H16.815C18.075 70.15 18.795 70.9 18.795 71.98C18.795 73.075 18.075 73.81 16.815 73.81H14.535ZM25.744 71.695C25.549 71.65 25.369 71.635 25.204 71.635C24.319 71.635 23.464 72.025 22.939 72.73V71.695H21.859V79H23.014V74.86C23.014 73.51 24.079 72.715 25.309 72.715H25.744V71.695ZM27.2936 79H28.4486V71.695H27.2936V79ZM27.0086 68.905C27.0086 69.385 27.3986 69.745 27.8786 69.745C28.3586 69.745 28.7336 69.385 28.7336 68.905C28.7336 68.44 28.3436 68.065 27.8786 68.065C27.3986 68.065 27.0086 68.44 27.0086 68.905ZM30.46 75.34C30.46 77.455 32.17 79.165 34.285 79.165C35.56 79.165 36.625 78.55 37.285 77.575L36.46 76.93C35.875 77.71 35.155 78.1 34.3 78.1C32.785 78.1 31.645 76.87 31.645 75.34C31.645 73.825 32.785 72.595 34.3 72.595C35.155 72.595 35.89 72.985 36.475 73.78L37.3 73.12C36.64 72.145 35.56 71.53 34.285 71.53C32.2 71.5 30.415 73.255 30.46 75.34ZM45.5502 75.7C45.6102 75.4 45.6402 75.115 45.6402 74.83C45.6402 72.895 44.2002 71.53 42.3102 71.53C40.2252 71.53 38.5752 73.24 38.5752 75.355C38.5752 77.5 40.2702 79.165 42.4452 79.165C43.6002 79.165 44.6052 78.685 45.3702 77.89L44.6952 77.11C44.0352 77.77 43.2852 78.1 42.4602 78.1C41.0202 78.1 39.9102 77.14 39.7752 75.7H45.5502ZM39.8202 74.68C40.0752 73.42 41.0652 72.58 42.2802 72.58C43.4952 72.58 44.4402 73.375 44.4552 74.68H39.8202ZM47.5495 72.565C47.5495 73.105 47.9695 73.51 48.4945 73.51C49.0195 73.51 49.4395 73.105 49.4395 72.565C49.4395 72.025 49.0195 71.62 48.4945 71.62C47.9695 71.62 47.5495 72.025 47.5495 72.565ZM47.5495 78.22C47.5495 78.76 47.9695 79.165 48.4945 79.165C49.0195 79.165 49.4395 78.76 49.4395 78.22C49.4395 77.68 49.0195 77.275 48.4945 77.275C47.9695 77.275 47.5495 77.68 47.5495 78.22Z" fill="#3D3D3D"/>
<path d="M59.7077 78.625C61.2077 78.385 62.1977 77.395 62.1977 76C62.1977 74.785 61.4327 73.915 59.9177 73.36L58.7927 72.97C58.1177 72.685 57.7877 72.46 57.7877 72.025C57.7877 71.5 58.2527 71.26 58.8677 71.26C59.5727 71.26 60.1127 71.575 60.5927 72.28L61.9427 71.26C61.4477 70.315 60.6977 69.745 59.7077 69.535V67.765H57.9377V69.565C56.6627 69.865 55.8077 70.795 55.8077 72.01C55.8077 73.225 56.6477 74.095 58.0427 74.62L59.0627 74.995C59.8577 75.31 60.2177 75.55 60.2177 76.03C60.2177 76.615 59.6927 76.915 58.9127 76.915C57.9827 76.915 57.2327 76.465 56.6477 75.55L55.2827 76.57C55.8377 77.635 56.7827 78.34 57.9377 78.595V80.455H59.7077V78.625ZM70.434 75.76C70.434 74.98 70.209 74.32 69.744 73.795C69.279 73.27 68.724 72.91 68.049 72.73L70.239 69.64V69.1H63.864V70.93H67.164L65.094 73.825V74.35H66.339C67.659 74.35 68.364 74.86 68.364 75.775C68.364 76.72 67.644 77.305 66.639 77.305C65.724 77.305 65.109 76.84 64.509 75.94L63.099 76.93C63.774 78.295 65.064 79.18 66.699 79.18C68.754 79.18 70.434 77.755 70.434 75.76ZM78.9664 72.475C78.9664 70.42 77.2714 68.92 75.3214 68.92C73.4164 68.89 71.6464 70.465 71.6914 72.46C71.6464 74.38 73.3264 75.865 74.9614 75.82H75.0364L72.7414 79H75.1414L77.6014 75.58C78.0814 74.92 78.4264 74.38 78.6364 73.945C78.8614 73.51 78.9664 73.03 78.9664 72.475ZM76.9564 72.46C76.9564 73.405 76.2364 74.125 75.3214 74.125C74.4214 74.125 73.6864 73.405 73.6864 72.46C73.6864 71.5 74.4214 70.78 75.3214 70.78C76.2364 70.78 76.9564 71.515 76.9564 72.46ZM84.2584 75.04H90.7384V73.345H84.2584V75.04ZM100.372 78.625C101.872 78.385 102.862 77.395 102.862 76C102.862 74.785 102.097 73.915 100.582 73.36L99.4568 72.97C98.7818 72.685 98.4518 72.46 98.4518 72.025C98.4518 71.5 98.9168 71.26 99.5318 71.26C100.237 71.26 100.777 71.575 101.257 72.28L102.607 71.26C102.112 70.315 101.362 69.745 100.372 69.535V67.765H98.6018V69.565C97.3268 69.865 96.4718 70.795 96.4718 72.01C96.4718 73.225 97.3118 74.095 98.7068 74.62L99.7268 74.995C100.522 75.31 100.882 75.55 100.882 76.03C100.882 76.615 100.357 76.915 99.5768 76.915C98.6468 76.915 97.8968 76.465 97.3118 75.55L95.9468 76.57C96.5018 77.635 97.4468 78.34 98.6018 78.595V80.455H100.372V78.625ZM107.513 69.1L103.808 70.315L104.288 72.1L106.163 71.5V79H108.188V69.1H107.513ZM113.849 77.275L115.124 75.925C115.829 75.19 116.354 74.53 116.714 73.96C117.074 73.375 117.254 72.76 117.254 72.085C117.254 70.285 115.799 68.92 113.819 68.92C111.704 68.92 110.324 70.51 110.324 72.19C110.324 72.475 110.354 72.76 110.429 73.03H112.469C112.424 72.73 112.394 72.49 112.394 72.31C112.394 71.41 112.949 70.795 113.789 70.795C114.629 70.795 115.169 71.395 115.169 72.25C115.169 72.985 114.749 73.675 113.774 74.74L110.234 78.58V79.015L117.539 79V77.275H113.849ZM125.878 75.76C125.878 74.98 125.653 74.32 125.188 73.795C124.723 73.27 124.168 72.91 123.493 72.73L125.683 69.64V69.1H119.308V70.93H122.608L120.538 73.825V74.35H121.783C123.103 74.35 123.808 74.86 123.808 75.775C123.808 76.72 123.088 77.305 122.083 77.305C121.168 77.305 120.553 76.84 119.953 75.94L118.543 76.93C119.218 78.295 120.508 79.18 122.143 79.18C124.198 79.18 125.878 77.755 125.878 75.76ZM127.391 73.975C127.391 76.9 128.711 79.18 131.321 79.18C133.916 79.18 135.236 76.9 135.236 73.975C135.236 72.46 134.906 71.245 134.231 70.315C133.571 69.385 132.596 68.92 131.321 68.92C130.046 68.92 129.071 69.385 128.396 70.315C127.721 71.245 127.391 72.46 127.391 73.975ZM133.151 73.99C133.151 76.195 132.536 77.305 131.321 77.305C130.091 77.305 129.476 76.195 129.476 73.99C129.476 71.89 130.046 70.795 131.321 70.795C132.581 70.795 133.151 71.89 133.151 73.99Z" fill="#46A358"/>
<rect x="12" y="98" width="90" height="35" rx="6" fill="#46A358"/>
<path d="M39.216 121H41.376V116.984H45.296V115.032H41.376V112.392H46.16V110.44H39.216V121ZM47.6345 121H49.7945V113.08H47.6345V121ZM47.3305 110.2C47.3305 110.952 47.9385 111.528 48.7065 111.528C49.4745 111.528 50.0985 110.952 50.0985 110.2C50.0985 109.432 49.4745 108.856 48.7065 108.856C47.9385 108.856 47.3305 109.432 47.3305 110.2ZM51.9314 121H54.0914V109H51.9314V121ZM61.3163 119.192C60.7563 119.24 60.4203 119.256 60.2923 119.256C59.2682 119.256 58.8203 118.92 58.8203 118.024V114.904H61.0603V113.08H58.8203V111.08H56.6603V113.08H55.4123V114.904H56.6603V118.216C56.6603 120.2 57.8283 121.192 59.8283 121.192C60.3083 121.192 60.8043 121.128 61.3163 121V119.192ZM70.0083 117.768C70.1042 117.368 70.1523 116.968 70.1523 116.584C70.1523 114.52 68.6163 112.904 66.4243 112.904C64.1363 112.856 62.2323 114.76 62.2803 117.048C62.2323 119.336 64.1683 121.24 66.6163 121.192C67.7843 121.192 68.8403 120.792 69.7843 120.008L68.8883 118.536C68.2003 119.064 67.4643 119.336 66.6803 119.336C65.5283 119.336 64.7123 118.776 64.4563 117.768H70.0083ZM64.4563 116.248C64.6963 115.272 65.4323 114.648 66.3443 114.648C67.2883 114.648 68.0403 115.272 68.0563 116.248H64.4563ZM76.7016 113.08C76.4936 113.016 76.2696 112.984 75.9976 112.984C75.1176 112.984 74.3496 113.368 73.8216 114.024V113.08H71.8376V121H73.9976V117.048C73.9976 115.688 74.8296 114.984 76.1256 114.984H76.7016V113.08Z" fill="white"/>
</svg>
